<svg viewBox="0 0 22 22" xmlns="http://www.w3.org/2000/svg" data-name="レイヤー 2" id="_レイヤー_2">
  <defs>
    <style>
      .cls-1 {
        fill: #fff;
      }

      .cls-2 {
        opacity: .9;
      }

      .cls-3 {
        fill: #121212;
      }
    </style>
  </defs>
  <g data-name="LINE LOGO" id="LINE_LOGO">
    <g class="cls-2">
      <rect ry="4.96" rx="4.96" height="22" width="22" class="cls-3"></rect>
      <g>
        <path d="m18.33,9.96c0-3.28-3.29-5.95-7.33-5.95s-7.33,2.67-7.33,5.95c0,2.94,2.61,5.41,6.13,5.87.24.05.56.16.65.36.07.19.05.48.02.66,0,0-.09.52-.1.63-.03.19-.15.73.64.4.78-.33,4.22-2.49,5.76-4.26h0c1.06-1.17,1.57-2.35,1.57-3.66Z" class="cls-1"></path>
        <g>
          <path d="m15.89,11.86h-2.06c-.08,0-.14-.06-.14-.14h0v-3.2h0c0-.08.06-.14.14-.14h2.06c.08,0,.14.06.14.14v.52c0,.08-.06.14-.14.14h-1.4v.54h1.4c.08,0,.14.06.14.14v.52c0,.08-.06.14-.14.14h-1.4v.54h1.4c.08,0,.14.06.14.14v.52c0,.08-.06.14-.14.14Z" class="cls-3"></path>
          <path d="m8.27,11.86c.08,0,.14-.06.14-.14v-.52c0-.08-.06-.14-.14-.14h-1.4v-2.54c0-.08-.06-.14-.14-.14h-.52c-.08,0-.14.06-.14.14v3.2h0c0,.08.06.14.14.14h2.06Z" class="cls-3"></path>
          <rect ry=".14" rx=".14" height="3.48" width=".8" y="8.38" x="8.85" class="cls-3"></rect>
          <path d="m13.05,8.38h-.52c-.08,0-.14.06-.14.14v1.9l-1.46-1.98s0,0-.01-.01c0,0,0,0,0,0,0,0,0,0,0,0,0,0,0,0,0,0,0,0,0,0,0,0,0,0,0,0,0,0,0,0,0,0,0,0,0,0,0,0,0,0,0,0,0,0,0,0,0,0,0,0,0,0,0,0,0,0,0,0,0,0,0,0,0,0,0,0,0,0,0,0,0,0,0,0,0,0,0,0,0,0,0,0,0,0,0,0,0,0,0,0,0,0,0,0,0,0,0,0,0,0,0,0,0,0,0,0h-.52c-.08,0-.14.06-.14.14v3.2c0,.08.06.14.14.14h.52c.08,0,.14-.06.14-.14v-1.9l1.47,1.98s.02.03.04.04c0,0,0,0,0,0,0,0,0,0,0,0,0,0,0,0,0,0,0,0,0,0,0,0,0,0,0,0,0,0,0,0,0,0,0,0,0,0,0,0,0,0,0,0,0,0,0,0,.01,0,.02,0,.04,0h.52c.08,0,.14-.06.14-.14v-3.2c0-.08-.06-.14-.14-.14Z" class="cls-3"></path>
        </g>
      </g>
    </g>
  </g>
</svg>